# xmcd CD database file
#
# Track frame offsets:
#	150
#	11174
#	25230
#	35409
#	49651
#	64338
#	75565
#	90129
#	102891
#	114228
#	128709
#	144432
#	153469
#	176393
#
# Disc length: 2580 seconds
#
# Revision: 0
# Processed by: cddbd v1.5.2PL0 Copyright (c) Steve Scherf et al.
# Submitted via: CDex 1.51
#
DISCID=a40a120e
DTITLE=Magic Sound Big Band - Swing on Friday
DYEAR=2005
DGENRE=Jazz
TTITLE0=Flight of the Foo Bird
TTITLE1=Mack the Knife
TTITLE2=Blue Skies
TTITLE3=Joshua
TTITLE4=Mr. Bojangles
TTITLE5=Almost like being in Love
TTITLE6=Song of the Volga Boatmen
TTITLE7=Route 66
TTITLE8=For once in my Life
TTITLE9=Switch in Time
TTITLE10=I've got you under my Skin
TTITLE11=Sweet Georgia Brown
TTITLE12=Shiny Stockings
TTITLE13=Beyond the Sea
EXTD=YEAR: 2005
EXTT0=
EXTT1=
EXTT2=
EXTT3=
EXTT4=
EXTT5=
EXTT6=
EXTT7=
EXTT8=
EXTT9=
EXTT10=
EXTT11=
EXTT12=
EXTT13=
PLAYORDER=
